PathFileType	4	(X/Y/Z)	 0.11m3min.trc
DataRate	CameraRate	NumFrames	NumMarkers	Units	OrigDataRate	OrigDataStartFrame	OrigNumFrames
200	200	9	43	m	200	501	1000
Frame#	Time	C7			LSH			RSH			MAN			RASI			LASI			HIPR			HIPL			RPSI			LPSI			COX			RTHI1			RTHI2			RTHI3			RTHI4			RLKN			RMKN			RSHA1			RSHA2			RSHA3			RSHA4			RLMAL			RMMAL			RHEEL			RMET5			RMET1			RTOE			LTHI1			LTHI2			LTHI3			LTHI4			LLKN			LMKN			LSHA1			LSHA2			LSHA3			LSHA4			LLMAL			LMMAL			LHEEL			LMET5			LMET1			LTOE			
		X1	Y1	Z1	X2	Y2	Z2	X3	Y3	Z3	X4	Y4	Z4	X5	Y5	Z5	X6	Y6	Z6	X7	Y7	Z7	X8	Y8	Z8	X9	Y9	Z9	X10	Y10	Z10	X11	Y11	Z11	X12	Y12	Z12	X13	Y13	Z13	X14	Y14	Z14	X15	Y15	Z15	X16	Y16	Z16	X17	Y17	Z17	X18	Y18	Z18	X19	Y19	Z19	X20	Y20	Z20	X21	Y21	Z21	X22	Y22	Z22	X23	Y23	Z23	X24	Y24	Z24	X25	Y25	Z25	X26	Y26	Z26	X27	Y27	Z27	X28	Y28	Z28	X29	Y29	Z29	X30	Y30	Z30	X31	Y31	Z31	X32	Y32	Z32	X33	Y33	Z33	X34	Y34	Z34	X35	Y35	Z35	X36	Y36	Z36	X37	Y37	Z37	X38	Y38	Z38	X39	Y39	Z39	X40	Y40	Z40	X41	Y41	Z41	X42	Y42	Z42	X43	Y43	Z43	
501	2.5050	-0.262956	1.453678	-0.497446	-0.278262	1.448769	-0.675032	-0.160080	1.438971	-0.334132	-0.137337	1.392060	-0.529160	-0.138074	0.968849	-0.416781	-0.171033	0.970415	-0.640167	-0.187580	1.018730	-0.379013	-0.231606	1.012735	-0.657980	-0.291098	1.013592	-0.450724	-0.305712	1.011891	-0.552134	-0.299752	1.016649	-0.498038	-0.200199	0.739544	-0.335918	-0.177665	0.684185	-0.334154	-0.117373	0.703870	-0.346950	-0.131828	0.763969	-0.349807	-0.133517	0.457861	-0.359076	-0.138360	0.445177	-0.456382	-0.265714	0.295816	-0.341840	-0.287318	0.260161	-0.350943	-0.230707	0.236774	-0.358309	-0.214223	0.273284	-0.352552	-0.314821	0.122639	-0.372814	-0.297270	0.134549	-0.450682	-0.366592	0.112874	-0.416882	-0.220082	0.034886	-0.349559	-0.178812	0.044220	-0.426804	-0.151709	0.036199	-0.420458	-0.264549	0.750588	-0.703150	-0.242598	0.694033	-0.713928	-0.179944	0.712062	-0.713947	-0.194421	0.769480	-0.704822	-0.205484	0.459495	-0.708403	-0.184298	0.446540	-0.612217	-0.342958	0.272785	-0.693942	-0.357086	0.236509	-0.682173	-0.298663	0.216894	-0.689307	-0.290904	0.259027	-0.700413	-0.362405	0.122875	-0.677539	-0.349687	0.131295	-0.599975	-0.419154	0.110902	-0.631822	-0.274204	0.038931	-0.698204	-0.230187	0.045738	-0.623154	-0.203952	0.037362	-0.634039	
502	2.5100	-0.263063	1.448034	-0.497560	-0.278083	1.442527	-0.675497	-0.159729	1.433155	-0.334106	-0.137496	1.385466	-0.529152	-0.138951	0.963032	-0.416637	-0.172114	0.964128	-0.640427	-0.188905	1.012122	-0.378583	-0.232937	1.005679	-0.658128	-0.292260	1.006877	-0.450777	-0.306948	1.004978	-0.552047	-0.300838	1.009839	-0.498049	-0.200104	0.734019	-0.335647	-0.177225	0.678810	-0.333747	-0.116969	0.698893	-0.346032	-0.131909	0.758868	-0.349059	-0.131426	0.452714	-0.358703	-0.136507	0.440297	-0.455916	-0.265091	0.291809	-0.341327	-0.287088	0.256365	-0.350496	-0.230856	0.232522	-0.358383	-0.213913	0.268821	-0.352502	-0.316011	0.119045	-0.372510	-0.298807	0.131341	-0.451048	-0.368500	0.108983	-0.416590	-0.220426	0.034158	-0.349093	-0.178773	0.044201	-0.426745	-0.151330	0.036191	-0.420474	-0.264549	0.744094	-0.703680	-0.242063	0.687789	-0.714725	-0.179601	0.706510	-0.715079	-0.194650	0.763740	-0.705721	-0.203591	0.453884	-0.709523	-0.181937	0.441149	-0.613580	-0.342621	0.268656	-0.693797	-0.357252	0.232661	-0.681703	-0.299005	0.212259	-0.688324	-0.290718	0.254204	-0.699827	-0.363991	0.119247	-0.675840	-0.350474	0.128152	-0.597958	-0.420792	0.107100	-0.629680	-0.275054	0.038486	-0.698005	-0.230021	0.045689	-0.622932	-0.203648	0.037338	-0.633947	
503	2.5150	-0.263184	1.442634	-0.497702	-0.278004	1.436484	-0.675897	-0.159471	1.427576	-0.334091	-0.137629	1.379045	-0.529159	-0.139804	0.957389	-0.416459	-0.173244	0.958017	-0.640706	-0.190256	1.005563	-0.378071	-0.234347	0.998684	-0.658298	-0.293461	1.000218	-0.450803	-0.308229	0.998141	-0.551944	-0.301926	1.003157	-0.498020	-0.200352	0.728781	-0.335458	-0.177193	0.673700	-0.333382	-0.116915	0.694140	-0.344877	-0.132309	0.753984	-0.348149	-0.129509	0.447804	-0.358185	-0.134672	0.435682	-0.455375	-0.264467	0.287917	-0.340847	-0.286801	0.252678	-0.350152	-0.230931	0.228420	-0.358467	-0.213576	0.264519	-0.352423	-0.317062	0.115565	-0.372434	-0.300174	0.128290	-0.451463	-0.370173	0.105426	-0.416478	-0.220750	0.033499	-0.348655	-0.178739	0.044205	-0.426684	-0.150997	0.036189	-0.420472	-0.264705	0.737938	-0.704132	-0.241731	0.681871	-0.715442	-0.179465	0.701270	-0.716287	-0.195052	0.758308	-0.706699	-0.201764	0.448627	-0.710671	-0.179627	0.436147	-0.614881	-0.342210	0.264747	-0.693534	-0.357302	0.229022	-0.681135	-0.299241	0.207890	-0.687376	-0.290470	0.249647	-0.699253	-0.365276	0.115803	-0.674175	-0.351014	0.125168	-0.595969	-0.422134	0.103625	-0.627493	-0.275811	0.038114	-0.697761	-0.229819	0.045649	-0.622736	-0.203342	0.037318	-0.633894	
504	2.5200	-0.263339	1.437509	-0.497860	-0.278048	1.430708	-0.676225	-0.159316	1.422287	-0.334092	-0.137742	1.372865	-0.529179	-0.140634	0.951975	-0.416245	-0.174406	0.952152	-0.640990	-0.191630	0.999118	-0.377485	-0.235843	0.991842	-0.658502	-0.294679	0.993731	-0.450794	-0.309531	0.991507	-0.551805	-0.302978	0.996756	-0.497950	-0.200944	0.723821	-0.335370	-0.177533	0.668853	-0.333081	-0.117202	0.689636	-0.343562	-0.132986	0.749360	-0.347070	-0.127824	0.443182	-0.357541	-0.132846	0.431363	-0.454738	-0.263936	0.284232	-0.340404	-0.286548	0.249195	-0.349917	-0.231016	0.224557	-0.358555	-0.213296	0.260467	-0.352308	-0.318052	0.112394	-0.372536	-0.301442	0.125510	-0.451917	-0.371660	0.102272	-0.416584	-0.221149	0.032908	-0.348266	-0.178781	0.044226	-0.426607	-0.150803	0.036181	-0.420427	-0.265082	0.732211	-0.704436	-0.241689	0.676373	-0.716032	-0.179625	0.696412	-0.717554	-0.195688	0.753271	-0.707734	-0.199999	0.443784	-0.711857	-0.177320	0.431553	-0.616191	-0.341804	0.261154	-0.693179	-0.357295	0.225688	-0.680511	-0.299439	0.203855	-0.686542	-0.290236	0.245441	-0.698759	-0.366335	0.112677	-0.672607	-0.351451	0.122433	-0.594119	-0.423227	0.100551	-0.625357	-0.276535	0.037820	-0.697499	-0.229641	0.045630	-0.622583	-0.203087	0.037301	-0.633883	
505	2.5250	-0.263541	1.432703	-0.498021	-0.278235	1.425260	-0.676479	-0.159249	1.417323	-0.334109	-0.137856	1.367017	-0.529213	-0.141442	0.946855	-0.415991	-0.175577	0.946617	-0.641280	-0.193019	0.992884	-0.376835	-0.237427	0.985251	-0.658747	-0.295882	0.987579	-0.450745	-0.310817	0.985235	-0.551618	-0.303953	0.990809	-0.497850	-0.201809	0.719164	-0.335348	-0.178166	0.664295	-0.332832	-0.117772	0.685428	-0.342171	-0.133889	0.745039	-0.345894	-0.126420	0.438933	-0.356783	-0.131062	0.427374	-0.454005	-0.263552	0.280853	-0.340042	-0.286376	0.245984	-0.349825	-0.231156	0.221020	-0.358636	-0.213123	0.256755	-0.352157	-0.319028	0.109672	-0.372760	-0.302613	0.123045	-0.452393	-0.372987	0.099505	-0.416929	-0.221604	0.032391	-0.347932	-0.178887	0.044284	-0.426517	-0.150724	0.036178	-0.420341	-0.265708	0.727002	-0.704557	-0.241970	0.671378	-0.716473	-0.180114	0.692002	-0.718858	-0.196587	0.748690	-0.708780	-0.198316	0.439413	-0.713090	-0.174984	0.427397	-0.617576	-0.341397	0.257979	-0.692809	-0.357243	0.222738	-0.679899	-0.299605	0.200263	-0.685887	-0.290016	0.241684	-0.698406	-0.367218	0.109964	-0.671196	-0.351816	0.120059	-0.592502	-0.424090	0.097908	-0.623373	-0.277216	0.037594	-0.697251	-0.229502	0.045632	-0.622483	-0.202881	0.037287	-0.633907	
506	2.5300	-0.263792	1.428279	-0.498167	-0.278571	1.420187	-0.676663	-0.159265	1.412748	-0.334135	-0.137989	1.361614	-0.529252	-0.142227	0.942091	-0.415695	-0.176731	0.941496	-0.641566	-0.194420	0.986955	-0.376141	-0.239109	0.979030	-0.659023	-0.297013	0.981940	-0.450668	-0.312039	0.979502	-0.551355	-0.304827	0.985493	-0.497721	-0.202839	0.714873	-0.335337	-0.178974	0.660109	-0.332600	-0.118530	0.681569	-0.340813	-0.134932	0.741083	-0.344713	-0.125326	0.435139	-0.355936	-0.129368	0.423761	-0.453194	-0.263346	0.277846	-0.339791	-0.286343	0.243141	-0.349858	-0.231371	0.217876	-0.358703	-0.213081	0.253452	-0.351992	-0.319966	0.107350	-0.373160	-0.303606	0.120902	-0.452907	-0.374134	0.097095	-0.417503	-0.222071	0.031941	-0.347654	-0.179015	0.044354	-0.426417	-0.150699	0.036182	-0.420221	-0.266556	0.722359	-0.704500	-0.242544	0.666933	-0.716778	-0.180909	0.688085	-0.720152	-0.197717	0.744616	-0.709789	-0.196736	0.435561	-0.714368	-0.172617	0.423686	-0.619063	-0.340993	0.255260	-0.692500	-0.357130	0.220226	-0.679388	-0.299711	0.197178	-0.685441	-0.289786	0.238446	-0.698227	-0.367930	0.107719	-0.670004	-0.352090	0.118095	-0.591189	-0.424739	0.095683	-0.621627	-0.277807	0.037425	-0.697056	-0.229388	0.045646	-0.622434	-0.202699	0.037276	-0.633948	
507	2.5350	-0.264082	1.424299	-0.498287	-0.279073	1.415583	-0.676792	-0.159360	1.408624	-0.334154	-0.138158	1.356784	-0.529288	-0.142986	0.937755	-0.415367	-0.177844	0.936874	-0.641837	-0.195812	0.981451	-0.375425	-0.240880	0.973310	-0.659322	-0.298028	0.977005	-0.450556	-0.313150	0.974485	-0.551030	-0.305566	0.980966	-0.497571	-0.203916	0.711046	-0.335281	-0.179846	0.656382	-0.332345	-0.119374	0.678143	-0.339567	-0.136013	0.737570	-0.343596	-0.124541	0.431863	-0.355037	-0.127815	0.420569	-0.452338	-0.263298	0.275255	-0.339673	-0.286445	0.240708	-0.349990	-0.231655	0.215158	-0.358774	-0.213146	0.250613	-0.351830	-0.320821	0.105403	-0.373666	-0.304343	0.119060	-0.453472	-0.375077	0.095010	-0.418271	-0.222514	0.031564	-0.347450	-0.179126	0.044416	-0.426327	-0.150675	0.036194	-0.420080	-0.267544	0.718305	-0.704315	-0.243316	0.663065	-0.716980	-0.181911	0.684688	-0.721385	-0.198992	0.741078	-0.710730	-0.195251	0.432284	-0.715681	-0.170252	0.420458	-0.620644	-0.340551	0.253042	-0.692350	-0.356930	0.218189	-0.679068	-0.299715	0.194632	-0.685234	-0.289501	0.235771	-0.698246	-0.368454	0.105941	-0.669078	-0.352218	0.116550	-0.590191	-0.425197	0.093882	-0.620226	-0.278286	0.037291	-0.696922	-0.229292	0.045666	-0.622423	-0.202534	0.037267	-0.633992	
508	2.5400	-0.264381	1.420844	-0.498378	-0.279728	1.411515	-0.676869	-0.159525	1.404996	-0.334162	-0.138390	1.352646	-0.529325	-0.143699	0.933929	-0.415028	-0.178886	0.932841	-0.642079	-0.197165	0.976502	-0.374717	-0.242703	0.968229	-0.659639	-0.298895	0.972930	-0.450403	-0.314117	0.970323	-0.550673	-0.306169	0.977296	-0.497409	-0.204930	0.707775	-0.335151	-0.180673	0.653201	-0.332048	-0.120200	0.675226	-0.338481	-0.137025	0.734587	-0.342590	-0.124019	0.429141	-0.354145	-0.126429	0.417844	-0.451482	-0.263370	0.273110	-0.339691	-0.286642	0.238710	-0.350215	-0.231938	0.212897	-0.358838	-0.213281	0.248258	-0.351686	-0.321513	0.103756	-0.374196	-0.304802	0.117490	-0.454083	-0.375805	0.093265	-0.419160	-0.222903	0.031266	-0.347331	-0.179194	0.044460	-0.426244	-0.150625	0.036211	-0.419923	-0.268566	0.714846	-0.704070	-0.244157	0.659782	-0.717120	-0.182986	0.681819	-0.722508	-0.200290	0.738091	-0.711572	-0.193871	0.429598	-0.717003	-0.167961	0.417756	-0.622281	-0.340040	0.251312	-0.692419	-0.356628	0.216616	-0.679000	-0.299595	0.192607	-0.685264	-0.289126	0.233636	-0.698471	-0.368798	0.104590	-0.668463	-0.352181	0.115409	-0.589521	-0.425493	0.092521	-0.619242	-0.278651	0.037174	-0.696870	-0.229222	0.045692	-0.622450	-0.202392	0.037261	-0.634035	
509	2.5450	-0.264674	1.417983	-0.498446	-0.280522	1.408029	-0.676901	-0.159746	1.401917	-0.334150	-0.138703	1.349295	-0.529368	-0.144348	0.930704	-0.414710	-0.179815	0.929474	-0.642274	-0.198424	0.972262	-0.374046	-0.244503	0.963920	-0.659946	-0.299594	0.969806	-0.450218	-0.314921	0.967094	-0.550318	-0.306651	0.974472	-0.497245	-0.205793	0.705154	-0.334923	-0.181383	0.650660	-0.331694	-0.120923	0.672896	-0.337564	-0.137907	0.732200	-0.341742	-0.123699	0.426994	-0.353316	-0.125227	0.415630	-0.450669	-0.263513	0.271425	-0.339828	-0.286901	0.237165	-0.350503	-0.232205	0.211094	-0.358902	-0.213457	0.246395	-0.351580	-0.322028	0.102407	-0.374748	-0.305030	0.116175	-0.454697	-0.376324	0.091869	-0.420082	-0.223222	0.031044	-0.347286	-0.179197	0.044497	-0.426188	-0.150536	0.036241	-0.419767	-0.269503	0.711999	-0.703830	-0.244933	0.657100	-0.717249	-0.183990	0.679500	-0.723486	-0.201485	0.735665	-0.712291	-0.192604	0.427494	-0.718306	-0.165830	0.415608	-0.623911	-0.339459	0.250045	-0.692737	-0.356239	0.215473	-0.679190	-0.299359	0.191082	-0.685509	-0.288662	0.232024	-0.698878	-0.368976	0.103627	-0.668174	-0.352042	0.114645	-0.589189	-0.425651	0.091603	-0.618707	-0.278897	0.037068	-0.696917	-0.229176	0.045725	-0.622517	-0.202276	0.037260	-0.634074	
